<svg xmlns="http://www.w3.org/2000/svg" viewBox="0 0 120 120" fill="none">
  <defs>
    <linearGradient id="grad" x1="0" y1="0" x2="1" y2="1">
      <stop offset="0%" stop-color="#f4d35e"/>
      <stop offset="100%" stop-color="#8b1f2d"/>
    </linearGradient>
  </defs>
  <rect width="120" height="120" rx="24" fill="#12060b"/>
  <path d="M30 84h60v8H30v-8Zm12-44h36v16H42V40Zm0 18h36v32H42V58Z" fill="#f9f5f2" opacity="0.95"/>
  <path d="M60 40l18 12-18 12-18-12 18-12Z" fill="url(#grad)"/>
  <path d="M60 74c5.5 0 10-4.5 10-10s-4.5-10-10-10-10 4.5-10 10 4.5 10 10 10Zm0-4c3.3 0 6-2.7 6-6s-2.7-6-6-6-6 2.7-6 6 2.7 6 6 6Z" fill="#f9f5f2"/>
  <path d="M69 67.5c2.2-2.2 3.5-5.1 3.5-8.5s-1.3-6.3-3.5-8.5" stroke="#f9f5f2" stroke-width="4" stroke-linecap="round"/>
  <path d="M51 67.5c-2.2-2.2-3.5-5.1-3.5-8.5s1.3-6.3 3.5-8.5" stroke="#f9f5f2" stroke-width="4" stroke-linecap="round"/>
</svg>
